<svg
        width="1170"
        height="1158" version="1.1" xmlns="http://www.w3.org/2000/svg">
    <path
            fill="rgb(0,0,0)"
            stroke="rgb(0,0,0)"
            stroke-width="1"
            opacity="0"
            d="M 0 0 L 1170 0 L 1170 1158 L 0 1158 L 0 0 Z M 570 233 L 560 236 L 544 236 L 538 239 L 518 241 L 515 243 L 496 246 L 493 248 L 477 251 L 468 255 L 454 258 L 452 260 L 437 263 L 435 265 L 420 268 L 417 270 L 394 277 L 368 288 L 366 290 L 363 290 L 361 292 L 340 300 L 320 310 L 315 314 L 307 317 L 267 342 L 238 366 L 207 400 L 193 424 L 192 430 L 190 432 L 190 436 L 188 439 L 188 443 L 181 458 L 180 465 L 178 467 L 178 471 L 175 479 L 175 485 L 173 487 Q 174 494 171 498 L 170 516 L 168 519 L 168 579 L 170 587 L 170 614 L 173 624 L 173 631 L 175 633 L 175 640 L 178 650 L 178 656 L 180 658 L 180 665 L 183 675 L 183 680 L 185 683 L 185 689 L 187 693 L 188 701 L 190 703 L 193 714 L 198 724 L 207 736 L 227 770 L 235 781 Q 246 794 262 804 Q 273 810 287 814 L 291 820 L 291 838 L 293 843 L 294 858 L 297 869 L 297 892 L 298 893 L 298 906 L 299 907 Q 301 912 298 914 L 299 915 L 299 926 L 301 935 L 302 952 L 303 953 L 303 962 L 302 963 L 303 967 L 313 952 L 330 934 L 335 924 L 340 918 L 340 916 L 359 890 L 364 880 L 367 868 L 374 859 L 382 859 L 429 874 L 439 874 L 464 880 L 475 881 L 480 883 L 486 883 L 491 885 L 497 885 L 510 888 L 518 888 L 522 890 L 541 893 L 549 896 L 569 898 L 575 900 L 582 900 L 584 900 L 592 902 L 610 903 L 627 907 L 707 907 L 717 905 L 731 905 L 740 903 L 760 902 L 796 893 L 808 892 L 831 885 L 884 863 L 899 853 L 908 850 L 909 848 L 952 812 L 965 796 L 968 790 L 968 787 L 970 785 L 970 782 L 980 768 L 990 744 L 995 736 L 995 733 L 1005 714 Q 1004 709 1007 708 L 1007 702 L 1009 700 L 1012 690 L 1017 680 L 1017 676 L 1019 674 Q 1019 667 1022 663 L 1022 658 L 1024 656 L 1025 647 L 1027 643 L 1027 636 L 1029 633 L 1029 622 L 1031 613 L 1032 584 L 1034 581 L 1034 565 L 1032 559 L 1032 541 L 1031 540 L 1031 532 L 1029 527 L 1029 519 L 1027 517 L 1027 511 L 1025 504 L 1017 484 L 1015 474 L 1009 458 L 998 436 L 957 374 L 953 370 L 953 368 L 926 341 L 926 339 L 903 324 L 879 304 L 876 304 L 871 300 L 852 292 L 850 290 L 835 287 L 786 265 L 783 265 L 770 260 L 754 258 L 750 256 L 740 255 L 727 251 L 717 250 L 713 248 L 708 248 L 695 243 L 680 243 Q 675 240 667 241 L 657 238 L 652 238 L 649 236 L 643 236 L 631 233 L 622 233 L 614 235 L 570 233 Z "></path><path fill="rgb(0,0,0)" stroke="rgb(0,0,0)" stroke-width="1" opacity="0" d="M 733.5 377 L 750.5 378 L 755.5 380 L 761.5 380 L 774.5 383 Q 787.4 389.6 796 400.5 L 803 411.5 L 806 422.5 L 806 441.5 L 803 453.5 L 801 455.5 L 798 464.5 L 786.5 478 L 767 489.5 L 766 491.5 L 776 510.5 L 789 543.5 L 803 569.5 L 803 573.5 L 801.5 575 L 792.5 575 Q 787.9 572.1 779.5 573 L 774.5 571 L 761.5 570 L 758 567.5 L 753 550.5 L 753 546.5 L 744 526.5 L 744 522.5 Q 741 515 734.5 511 L 729 508 L 731 517.5 L 732 538.5 L 734 543.5 L 734 562.5 L 730.5 565 Q 725.7 563.8 724.5 566 L 710.5 566 Q 705.1 569.6 694.5 568 L 692.5 566 Q 688 567 687 564.5 L 687 552.5 L 689 544.5 L 689 528.5 L 690 527.5 L 690 514.5 L 691 513.5 L 692 445.5 L 694 440.5 L 695 402.5 L 697 393.5 L 697 385.5 L 701.5 381 L 711.5 380 L 717.5 378 L 732.5 378 L 733.5 377 Z M 748 417 Q 746 419 742 418 L 732 423 L 730 428 L 730 436 L 729 437 L 729 462 L 739 462 L 740 463 L 759 459 L 767 455 L 771 448 L 771 438 L 766 427 Q 761 418 748 417 Z "></path><path fill="rgb(0,0,0)" stroke="rgb(0,0,0)" stroke-width="1" opacity="0" d="M 506.5 378 L 512.5 378 L 515.5 380 Q 520.3 378.8 521.5 381 L 524.5 380 L 526.5 380 L 537.5 379 L 539.5 379 L 557.5 382 Q 559.3 379.3 565.5 381 L 569 383.5 L 569 393.5 Q 566.4 396.4 567 402.5 L 562.5 412 L 556.5 415 L 539.5 417 L 527.5 420 L 522 424.5 L 518 432.5 L 517 448.5 L 520.5 452 L 538.5 453 L 539.5 452 L 548.5 452 Q 552.9 454.1 553 460.5 L 549 480.5 L 544.5 485 L 529.5 492 L 520.5 494 L 511 501.5 L 508 511.5 L 508 519.5 Q 510.6 522.9 517.5 522 L 518.5 521 L 530.5 521 L 536.5 519 L 545.5 519 L 547 520.5 L 547 530.5 L 540 556.5 L 535.5 563 L 521.5 566 L 514.5 566 L 508.5 568 L 470.5 568 Q 469 570.5 463.5 569 Q 460.5 568.5 461 564.5 L 467 550.5 L 468 531.5 L 472 518.5 L 473 498.5 L 475 495.5 L 475 489.5 L 478 478.5 L 478 471.5 L 480 468.5 L 480 461.5 L 482 457.5 L 483 444.5 L 485 440.5 L 485 432.5 L 487 428.5 L 488 407.5 L 490 400.5 L 490 387.5 L 495.5 381 L 502.5 380 L 506.5 378 Z "></path><path fill="rgb(0,0,0)" stroke="rgb(0,0,0)" stroke-width="1" opacity="0" d="M 458.5 379 L 471.5 380 L 475 383.5 L 476 390.5 L 475 391.5 L 473 414.5 L 471 419.5 L 471 427.5 L 468 441.5 L 468 450.5 L 466 454.5 L 466 461.5 L 458 495.5 L 458 501.5 L 456 506.5 L 453 529.5 L 451 534.5 L 451 542.5 L 449 546.5 L 448 558.5 L 444.5 564 L 437.5 566 L 415.5 566 L 413 563.5 L 413 550.5 L 414 549.5 L 414 539.5 L 416 534.5 L 416 525.5 L 418 521.5 L 419 508.5 L 421 504.5 L 421 498.5 L 423 493.5 L 425 477.5 L 424 475 L 421.5 474 L 414 481.5 Q 408.9 493.4 400.5 502 L 392.5 507 L 367.5 507 L 364 501.5 L 364 497.5 L 362 495.5 L 359 481.5 L 353.5 470 L 349.5 469 L 348 470.5 L 343 488.5 L 343 493.5 L 340 503.5 L 340 509.5 L 338 513.5 L 338 520.5 L 335 531.5 L 335 540.5 Q 332 543.5 333 550.5 L 328.5 558 L 325.5 558 L 320.5 561 L 315.5 561 L 312.5 563 L 299.5 563 Q 296.2 565.7 289.5 565 L 286 562.5 L 285 560.5 L 285 541.5 Q 287.7 539.8 286 533.5 L 288 530.5 L 288 523.5 L 290 520.5 L 290 513.5 L 293 502.5 L 293 495.5 L 295 492.5 L 295 486.5 L 298 475.5 L 298 466.5 L 300 464.5 L 300 457.5 L 302 453.5 L 303 440.5 L 305 437.5 L 308 414.5 L 310 411.5 L 310 404.5 L 312 400.5 L 313 390.5 L 318.5 385 L 355.5 383 L 362 387.5 L 378 421.5 L 387 451 L 389.5 452 L 392 449.5 L 396 439.5 L 396 432.5 Q 399.3 426.8 399 417.5 L 401 414.5 L 404 402.5 L 408 396.5 L 411 386.5 L 415.5 382 L 417.5 381 L 432.5 381 L 433.5 380 L 457.5 380 L 458.5 379 Z "></path><path fill="rgb(0,0,0)" stroke="rgb(0,0,0)" stroke-width="1" opacity="0" d="M 589.5 379 L 593.5 380 L 594.5 379 L 604.5 379 L 605.5 380 L 616.5 380 L 617.5 381 L 629.5 381 L 630.5 380 L 653.5 380 L 654.5 381 L 663.5 381 L 667.5 383 L 685.5 383 L 687 384.5 L 688 386.5 L 688 402.5 L 687 403.5 L 687 411.5 Q 684.2 414.2 685 420.5 L 681.5 426 L 664.5 427 L 660.5 428 L 655 432 L 651 446.5 L 650 466.5 L 648 473.5 L 648 482.5 L 646 487.5 L 646 496.5 L 643 510.5 L 643 520.5 L 641 523.5 L 640 535.5 L 638 541.5 L 638 547.5 L 636 550.5 L 636 555.5 L 633 563.5 L 630.5 566 L 622.5 568 L 608.5 568 L 607.5 569 L 589.5 571 Q 585 569 587 560.5 L 588 559.5 L 589 545.5 L 591 539.5 L 591 532.5 L 593 528.5 L 594 513.5 L 596 506.5 L 596 496.5 L 598 492.5 L 598 485.5 L 601 473.5 L 601 465.5 L 603 461.5 L 603 454.5 L 606 440.5 L 606 431.5 L 603.5 427 L 600.5 425 Q 593.5 426 590.5 423 L 581.5 423 L 578.5 424 L 574 421.5 L 574 397.5 Q 576.6 394.6 576 388.5 L 580.5 380 L 588.5 380 L 589.5 379 Z "></path><path fill="rgb(0,0,0)" stroke="rgb(0,0,0)" stroke-width="1" opacity="0" d="M 874.5 380 Q 885 378 888 383.5 L 905.5 405 L 914 411.5 L 919 420.5 L 924 436.5 Q 922.7 445.8 926 450.5 L 926 490.5 L 924 494.5 L 924 503.5 L 922 506.5 L 921 516.5 L 919 519.5 L 919 524.5 L 917 526.5 L 916 533.5 Q 909.1 548.1 897.5 558 Q 894.2 556.9 895 559.5 L 890.5 563 L 876.5 568 Q 868.5 567 864.5 570 L 849.5 570 L 841.5 568 L 833.5 563 L 820 550.5 L 813 536.5 L 810 526.5 L 808 524.5 L 807 519.5 L 807 487.5 L 808 486.5 L 808 476.5 L 810 470.5 L 810 461.5 L 817 438.5 L 830 412.5 L 848.5 390 L 863.5 383 L 874.5 380 Z M 864 444 L 861 445 L 855 451 L 848 464 L 847 469 L 847 488 L 846 489 L 847 507 L 853 518 L 861 523 L 870 523 L 875 519 L 881 511 L 884 505 L 884 502 L 886 500 L 887 488 L 888 487 L 888 478 L 889 477 Q 889 461 881 454 L 871 445 L 864 444 Z "></path><path fill="rgb(0,0,0)" stroke="rgb(0,0,0)" stroke-width="1" opacity="0" d="M 614.5 591 L 634.5 592 L 645.5 595 L 660.5 604 L 668 610.5 L 675 618.5 L 687 640.5 L 689 649.5 L 689 658.5 L 688 659.5 L 687 689.5 L 685 694.5 L 685 700.5 Q 681.8 704.8 682 712.5 L 680 714.5 L 680 717.5 L 678 719.5 L 675 728.5 L 661.5 748 L 649.5 758 L 628.5 770 L 625.5 770 L 621.5 773 L 618.5 773 L 616.5 775 L 603.5 780 Q 596.5 779 593.5 782 L 586.5 782 L 584 779.5 L 584 767.5 L 586 762.5 Q 584.9 753.9 588 749.5 L 589 733.5 L 591 726.5 L 591 714.5 L 593 706.5 L 593 695.5 L 596 681.5 L 596 672.5 L 598 666.5 L 598 657.5 L 601 645.5 L 601 637.5 L 603 633.5 L 603 626.5 L 606 614.5 L 606 605.5 L 609 595.5 L 611.5 592 L 614.5 591 Z M 629 652 L 626 664 L 626 676 L 627 677 L 627 702 L 626 703 L 626 713 L 629 714 L 633 714 L 642 711 Q 647 707 650 700 L 650 693 L 653 678 L 652 671 L 648 661 Q 643 652 629 652 Z "></path><path fill="rgb(0,0,0)" stroke="rgb(0,0,0)" stroke-width="1" opacity="0" d="M 491.5 592 L 498.5 593 L 503 596.5 L 503 611.5 L 500 624.5 L 500 633.5 L 498 638.5 L 498 646.5 L 496 652.5 L 495 667.5 L 493 671.5 L 493 678.5 L 490 688.5 L 490 693.5 L 488 697.5 L 488 703.5 L 486 707.5 L 485 718.5 L 483 723.5 L 483 730.5 L 478 752.5 L 478 760.5 L 476 763.5 L 476 770.5 L 472.5 778 Q 465.8 777.3 462.5 780 L 442.5 780 Q 439.1 777.4 440 770.5 L 441 769.5 L 441 759.5 L 443 753.5 L 443 743.5 L 445 738.5 L 446 725.5 L 448 722.5 L 448 715.5 L 450 711.5 L 451 697.5 L 453 691.5 L 449.5 687 L 443 693.5 Q 436.3 707.8 425.5 718 L 419.5 721 L 395.5 721 L 391 712.5 L 391 708.5 L 389 706.5 L 386 692.5 L 382 684 L 377 682 L 375 685.5 L 372 701.5 L 370 705.5 L 370 710.5 L 367 720.5 L 367 726.5 L 365 730.5 L 365 737.5 L 363 743.5 L 362 758.5 Q 359.2 761.2 360 767.5 L 355.5 772 L 336.5 777 L 314.5 778 L 313 776.5 L 313 751.5 L 315 748.5 L 315 742.5 L 318 732.5 L 318 724.5 Q 321 720.5 320 712.5 L 322 709.5 L 323 698.5 L 325 693.5 L 325 685.5 L 327 681.5 L 330 658.5 L 332 655.5 L 332 649.5 L 335 638.5 L 335 631.5 L 337 628.5 L 337 622.5 L 339 618.5 L 340 606.5 L 343.5 600 L 353.5 597 L 385.5 597 L 391 603.5 L 399 619.5 L 400 624.5 L 404 630.5 L 404 633.5 L 409 643.5 L 415 664 L 417.5 665 L 423 655.5 L 424 645.5 L 426 640.5 L 426 634.5 L 428 631.5 L 431 617.5 Q 436.4 611.4 438 601.5 L 441.5 597 L 444.5 595 Q 449.2 596.3 450.5 594 L 490.5 593 L 491.5 592 Z "></path>
    <path
            fill="rgb(0,0,0)"
            stroke="rgb(0,0,0)" stroke-width="1" opacity="0" d="M 530.5 592 L 541.5 592 Q 546.6 595.4 556.5 594 L 557.5 593 L 573.5 593 L 578.5 595 L 594.5 595 L 596 596.5 L 596 611.5 L 589.5 627 L 585.5 627 L 577.5 630 L 566.5 630 L 563.5 632 L 559.5 632 L 554.5 634 L 550 637.5 L 547 643.5 L 547 646.5 L 545 648.5 Q 546.7 656.7 544 660.5 L 546.5 664 L 549.5 666 L 577.5 666 L 579 667.5 Q 581.8 669.2 581 674.5 L 579 679.5 Q 579.9 687.9 577 692.5 L 572.5 698 L 560.5 704 L 557.5 704 L 555.5 706 L 551.5 706 L 546.5 708 L 539 714.5 L 537 718.5 L 537 725.5 Q 534.4 726.9 535 731.5 L 537 735 L 552.5 735 L 557.5 733 L 573.5 733 Q 576.8 734.8 575 741.5 Q 572.3 743.3 574 749.5 L 572 751.5 L 572 756.5 L 570 759.5 L 567 771.5 L 561.5 777 L 551.5 778 L 546.5 780 L 537.5 780 L 536.5 781 L 515.5 781 L 513.5 780 L 505.5 782 L 491.5 782 Q 488.8 780.8 490 775.5 L 492 773.5 L 495 762.5 L 495 751.5 L 500 730.5 L 500 716.5 L 502 712.5 L 502 706.5 L 505 696.5 L 505 689.5 L 507 685.5 L 507 679.5 L 509 675.5 L 510 663.5 L 512 658.5 L 512 651.5 L 514 646.5 L 518 603.5 L 519 598.5 L 521.5 595 L 530.5 592 Z "></path><path fill="rgb(0,0,0)" stroke="rgb(0,0,0)" stroke-width="1" opacity="0" d="M 735.5 594 Q 746.3 592.2 749 598.5 Q 750.2 606.2 747 609.5 L 747 625.5 L 744 632.5 Q 745 639.5 742 642.5 L 742 652.5 L 734 693.5 L 734 711.5 L 732 719.5 L 732 739.5 L 731 740.5 L 730 763.5 Q 727.8 764.8 729 769.5 L 725.5 773 L 717.5 775 L 704.5 775 L 697.5 777 L 687.5 777 L 686 775.5 L 686 766.5 L 687 765.5 L 687 751.5 L 689 745.5 L 690 721.5 L 692 711.5 L 692 697.5 L 694 690.5 L 695 669.5 L 702 631.5 L 702 599.5 L 705.5 596 Q 711 597.5 712.5 595 L 734.5 595 L 735.5 594 Z "></path><path fill="rgb(0,0,0)" stroke="rgb(0,0,0)" stroke-width="1" opacity="0" d="M 784.5 596 L 830.5 598 L 831.5 597 L 849.5 597 L 853 602.5 L 854 618.5 L 855 619.5 L 855 642.5 L 857 649.5 L 857 692.5 L 858 693.5 L 858 704.5 L 859 705.5 L 860 774.5 L 856.5 779 L 843.5 778 L 842.5 777 L 828.5 777 L 824.5 776 L 820 771.5 L 819 759.5 L 818 758.5 L 818 744.5 L 818 742.5 Q 819.5 734.5 814.5 733 Q 795.9 730.9 788 739.5 Q 788.8 743.8 786 744.5 L 786 752.5 L 784 758.5 L 783 769.5 L 779.5 774 L 777.5 775 L 746.5 775 L 742 771.5 L 743 759.5 L 744 758.5 L 744 749.5 L 746 743.5 L 746 734.5 Q 749 728 749 718.5 L 753 706.5 L 756 681.5 L 758 677.5 L 758 671.5 L 761 659.5 L 761 652.5 L 763 647.5 L 764 630.5 L 768 616.5 L 768 612.5 L 770 608.5 L 770 604.5 L 775.5 598 L 784.5 596 Z M 805 638 L 800 651 L 798 658 L 798 664 L 796 667 L 796 673 L 793 683 L 793 690 L 791 692 L 791 704 L 795 706 L 805 706 L 806 705 L 815 706 L 819 708 L 821 705 L 820 672 L 818 661 L 818 642 L 817 639 L 805 638 Z "></path><path fill="rgb(37,40,42)" stroke="rgb(37,40,42)" stroke-width="1" opacity="1" d="M 569.5 233 L 613.5 235 L 621.5 233 L 630.5 233 L 642.5 236 L 648.5 236 L 651.5 238 L 656.5 238 L 666.5 241 Q 675.1 239.9 679.5 243 L 694.5 243 L 707.5 248 L 712.5 248 L 716.5 250 L 726.5 251 L 739.5 255 L 749.5 256 L 753.5 258 L 769.5 260 L 782.5 265 L 785.5 265 L 834.5 287 L 849.5 290 L 851.5 292 L 870.5 300 L 875.5 304 L 878.5 304 L 902.5 324 L 926 339 L 926 340.5 L 953 367.5 L 953 369.5 L 957 373.5 L 998 435.5 L 1009 457.5 L 1015 473.5 L 1017 483.5 L 1025 503.5 L 1027 510.5 L 1027 516.5 L 1029 518.5 L 1029 526.5 L 1031 531.5 L 1031 539.5 L 1032 540.5 L 1032 558.5 L 1034 564.5 L 1034 580.5 L 1032 583.5 L 1031 612.5 L 1029 621.5 L 1029 632.5 L 1027 635.5 L 1027 642.5 L 1025 646.5 L 1024 655.5 L 1022 657.5 L 1022 662.5 Q 1019 666.5 1019 673.5 L 1017 675.5 L 1017 679.5 L 1012 689.5 L 1009 699.5 L 1007 701.5 L 1007 707.5 Q 1004.4 708.9 1005 713.5 L 995 732.5 L 995 735.5 L 990 743.5 L 980 767.5 L 970 781.5 L 970 784.5 L 968 786.5 L 968 789.5 L 965 795.5 L 952 812 L 909 847.5 L 907.5 850 L 898.5 853 L 883.5 863 L 830.5 885 L 807.5 892 L 795.5 893 L 759.5 902 L 739.5 903 L 730.5 905 L 716.5 905 L 706.5 907 L 626.5 907 L 609.5 903 L 591.5 902 L 583.5 900 L 581.5 900 L 574.5 900 L 568.5 898 L 548.5 896 L 540.5 893 L 521.5 890 L 517.5 888 L 509.5 888 L 496.5 885 L 490.5 885 L 485.5 883 L 479.5 883 L 474.5 881 L 463.5 880 L 438.5 874 L 428.5 874 L 381.5 859 L 373.5 859 L 367 867.5 L 364 879.5 L 359 889.5 L 340 915.5 L 340 917.5 L 335 923.5 L 330 933.5 L 313 951.5 L 302.5 967 L 302 962.5 L 303 961.5 L 303 952.5 L 302 951.5 L 301 934.5 L 299 925.5 L 299 914.5 L 298 913.5 Q 300.5 912 299 906.5 L 298 905.5 L 298 892.5 L 297 891.5 L 297 868.5 L 294 857.5 L 293 842.5 L 291 837.5 L 291 819.5 L 286.5 814 Q 272.5 810.5 261.5 804 Q 246 794.5 235 780.5 L 227 769.5 L 207 735.5 L 198 723.5 L 193 713.5 L 190 702.5 L 188 700.5 L 187 692.5 L 185 688.5 L 185 682.5 L 183 679.5 L 183 674.5 L 180 664.5 L 180 657.5 L 178 655.5 L 178 649.5 L 175 639.5 L 175 632.5 L 173 630.5 L 173 623.5 L 170 613.5 L 170 586.5 L 168 578.5 L 168 518.5 L 170 515.5 L 171 497.5 Q 173.9 493.9 173 486.5 L 175 484.5 L 175 478.5 L 178 470.5 L 178 466.5 L 180 464.5 L 181 457.5 L 188 442.5 L 188 438.5 L 190 435.5 L 190 431.5 L 192 429.5 L 193 423.5 L 207 399.5 L 237.5 366 L 266.5 342 L 306.5 317 L 314.5 314 L 319.5 310 L 339.5 300 L 360.5 292 L 362.5 290 L 365.5 290 L 367.5 288 L 393.5 277 L 416.5 270 L 419.5 268 L 434.5 265 L 436.5 263 L 451.5 260 L 453.5 258 L 467.5 255 L 476.5 251 L 492.5 248 L 495.5 246 L 514.5 243 L 517.5 241 L 537.5 239 L 543.5 236 L 559.5 236 L 569.5 233 Z M 734 377 L 733 378 L 718 378 L 712 380 L 702 381 L 697 386 L 697 394 L 695 403 L 694 441 L 692 446 L 691 514 L 690 515 L 690 528 L 689 529 L 689 545 L 687 553 L 687 565 Q 688 567 693 566 L 695 568 Q 705 570 711 566 L 725 566 Q 726 564 731 565 L 734 563 L 734 544 L 732 539 L 731 518 L 729 508 L 735 511 Q 741 515 744 523 L 744 527 L 753 547 L 753 551 L 758 568 L 762 570 L 775 571 L 780 573 Q 788 572 793 575 L 802 575 L 803 574 L 803 570 L 789 544 L 776 511 L 766 492 L 767 490 L 787 478 L 798 465 L 801 456 L 803 454 L 806 442 L 806 423 L 803 412 L 796 401 Q 787 390 775 383 L 762 380 L 756 380 L 751 378 L 734 377 Z M 507 378 L 503 380 L 496 381 L 490 388 L 490 401 L 488 408 L 487 429 L 485 433 L 485 441 L 483 445 L 482 458 L 480 462 L 480 469 L 478 472 L 478 479 L 475 490 L 475 496 L 473 499 L 472 519 L 468 532 L 467 551 L 461 565 Q 461 569 464 569 Q 469 571 471 568 L 509 568 L 515 566 L 522 566 L 536 563 L 540 557 L 547 531 L 547 521 L 546 519 L 537 519 L 531 521 L 519 521 L 518 522 Q 511 523 508 520 L 508 512 L 511 502 L 521 494 L 530 492 L 545 485 L 549 481 L 553 461 Q 553 454 549 452 L 540 452 L 539 453 L 521 452 L 517 449 L 518 433 L 522 425 L 528 420 L 540 417 L 557 415 L 563 412 L 567 403 Q 566 396 569 394 L 569 384 L 566 381 Q 559 379 558 382 L 540 379 L 538 379 L 527 380 L 525 380 L 522 381 Q 520 379 516 380 L 513 378 L 507 378 Z M 459 379 L 458 380 L 434 380 L 433 381 L 418 381 L 416 382 L 411 387 L 408 397 L 404 403 L 401 415 L 399 418 Q 399 427 396 433 L 396 440 L 392 450 L 390 452 L 387 451 L 378 422 L 362 388 L 356 383 L 319 385 L 313 391 L 312 401 L 310 405 L 310 412 L 308 415 L 305 438 L 303 441 L 302 454 L 300 458 L 300 465 L 298 467 L 298 476 L 295 487 L 295 493 L 293 496 L 293 503 L 290 514 L 290 521 L 288 524 L 288 531 L 286 534 Q 288 540 285 542 L 285 561 L 286 563 L 290 565 Q 296 566 300 563 L 313 563 L 316 561 L 321 561 L 326 558 L 329 558 L 333 551 Q 332 544 335 541 L 335 532 L 338 521 L 338 514 L 340 510 L 340 504 L 343 494 L 343 489 L 348 471 L 350 469 L 354 470 L 359 482 L 362 496 L 364 498 L 364 502 L 368 507 L 393 507 L 401 502 Q 409 493 414 482 L 422 474 L 424 475 L 425 478 L 423 494 L 421 499 L 421 505 L 419 509 L 418 522 L 416 526 L 416 535 L 414 540 L 414 550 L 413 551 L 413 564 L 416 566 L 438 566 L 445 564 L 448 559 L 449 547 L 451 543 L 451 535 L 453 530 L 456 507 L 458 502 L 458 496 L 466 462 L 466 455 L 468 451 L 468 442 L 471 428 L 471 420 L 473 415 L 475 392 L 476 391 L 475 384 L 472 380 L 459 379 Z M 590 379 L 589 380 L 581 380 L 576 389 Q 577 395 574 398 L 574 422 L 579 424 L 582 423 L 591 423 Q 594 426 601 425 L 604 427 L 606 432 L 606 441 L 603 455 L 603 462 L 601 466 L 601 474 L 598 486 L 598 493 L 596 497 L 596 507 L 594 514 L 593 529 L 591 533 L 591 540 L 589 546 L 588 560 L 587 561 Q 585 569 590 571 L 608 569 L 609 568 L 623 568 L 631 566 L 633 564 L 636 556 L 636 551 L 638 548 L 638 542 L 640 536 L 641 524 L 643 521 L 643 511 L 646 497 L 646 488 L 648 483 L 648 474 L 650 467 L 651 447 L 655 432 L 661 428 L 665 427 L 682 426 L 685 421 Q 684 414 687 412 L 687 404 L 688 403 L 688 387 L 687 385 L 686 383 L 668 383 L 664 381 L 655 381 L 654 380 L 631 380 L 630 381 L 618 381 L 617 380 L 606 380 L 605 379 L 595 379 L 594 380 L 590 379 Z M 875 380 L 864 383 L 849 390 L 830 413 L 817 439 L 810 462 L 810 471 L 808 477 L 808 487 L 807 488 L 807 520 L 808 525 L 810 527 L 813 537 L 820 551 L 834 563 L 842 568 L 850 570 L 865 570 Q 869 567 877 568 L 891 563 L 895 560 Q 894 557 898 558 Q 909 548 916 534 L 917 527 L 919 525 L 919 520 L 921 517 L 922 507 L 924 504 L 924 495 L 926 491 L 926 451 Q 923 446 924 437 L 919 421 L 914 412 L 906 405 L 888 384 Q 885 378 875 380 Z M 615 591 L 612 592 L 609 596 L 606 606 L 606 615 L 603 627 L 603 634 L 601 638 L 601 646 L 598 658 L 598 667 L 596 673 L 596 682 L 593 696 L 593 707 L 591 715 L 591 727 L 589 734 L 588 750 Q 585 754 586 763 L 584 768 L 584 780 L 587 782 L 594 782 Q 597 779 604 780 L 617 775 L 619 773 L 622 773 L 626 770 L 629 770 L 650 758 L 662 748 L 675 729 L 678 720 L 680 718 L 680 715 L 682 713 Q 682 705 685 701 L 685 695 L 687 690 L 688 660 L 689 659 L 689 650 L 687 641 L 675 619 L 668 611 L 661 604 L 646 595 L 635 592 L 615 591 Z M 492 592 L 491 593 L 451 594 Q 449 596 445 595 L 442 597 L 438 602 Q 436 611 431 618 L 428 632 L 426 635 L 426 641 L 424 646 L 423 656 L 418 665 L 415 664 L 409 644 L 404 634 L 404 631 L 400 625 L 399 620 L 391 604 L 386 597 L 354 597 L 344 600 L 340 607 L 339 619 L 337 623 L 337 629 L 335 632 L 335 639 L 332 650 L 332 656 L 330 659 L 327 682 L 325 686 L 325 694 L 323 699 L 322 710 L 320 713 Q 321 721 318 725 L 318 733 L 315 743 L 315 749 L 313 752 L 313 777 L 315 778 L 337 777 L 356 772 L 360 768 Q 359 761 362 759 L 363 744 L 365 738 L 365 731 L 367 727 L 367 721 L 370 711 L 370 706 L 372 702 L 375 686 L 377 682 L 382 684 L 386 693 L 389 707 L 391 709 L 391 713 L 396 721 L 420 721 L 426 718 Q 436 708 443 694 L 450 687 L 453 692 L 451 698 L 450 712 L 448 716 L 448 723 L 446 726 L 445 739 L 443 744 L 443 754 L 441 760 L 441 770 L 440 771 Q 439 777 443 780 L 463 780 Q 466 777 473 778 L 476 771 L 476 764 L 478 761 L 478 753 L 483 731 L 483 724 L 485 719 L 486 708 L 488 704 L 488 698 L 490 694 L 490 689 L 493 679 L 493 672 L 495 668 L 496 653 L 498 647 L 498 639 L 500 634 L 500 625 L 503 612 L 503 597 L 499 593 L 492 592 Z M 531 592 L 522 595 L 519 599 L 518 604 L 514 647 L 512 652 L 512 659 L 510 664 L 509 676 L 507 680 L 507 686 L 505 690 L 505 697 L 502 707 L 502 713 L 500 717 L 500 731 L 495 752 L 495 763 L 492 774 L 490 776 Q 489 781 492 782 L 506 782 L 514 780 L 516 781 L 537 781 L 538 780 L 547 780 L 552 778 L 562 777 L 567 772 L 570 760 L 572 757 L 572 752 L 574 750 Q 572 743 575 742 Q 577 735 574 733 L 558 733 L 553 735 L 537 735 L 535 732 Q 534 727 537 726 L 537 719 L 539 715 L 547 708 L 552 706 L 556 706 L 558 704 L 561 704 L 573 698 L 577 693 Q 580 688 579 680 L 581 675 Q 582 669 579 668 L 578 666 L 550 666 L 547 664 L 544 661 Q 547 657 545 649 L 547 647 L 547 644 L 550 638 L 555 634 L 560 632 L 564 632 L 567 630 L 578 630 L 586 627 L 590 627 L 596 612 L 596 597 L 595 595 L 579 595 L 574 593 L 558 593 L 557 594 Q 547 595 542 592 L 531 592 Z M 736 594 L 735 595 L 713 595 Q 711 598 706 596 L 702 600 L 702 632 L 695 670 L 694 691 L 692 698 L 692 712 L 690 722 L 689 746 L 687 752 L 687 766 L 686 767 L 686 776 L 688 777 L 698 777 L 705 775 L 718 775 L 726 773 L 729 770 Q 728 765 730 764 L 731 741 L 732 740 L 732 720 L 734 712 L 734 694 L 742 653 L 742 643 Q 745 640 744 633 L 747 626 L 747 610 Q 750 606 749 599 Q 746 592 736 594 Z M 785 596 L 776 598 L 770 605 L 770 609 L 768 613 L 768 617 L 764 631 L 763 648 L 761 653 L 761 660 L 758 672 L 758 678 L 756 682 L 753 707 L 749 719 Q 749 728 746 735 L 746 744 L 744 750 L 744 759 L 743 760 L 742 772 L 747 775 L 778 775 L 780 774 L 783 770 L 784 759 L 786 753 L 786 745 Q 789 744 788 740 Q 796 731 815 733 Q 819 735 818 743 L 818 745 L 818 759 L 819 760 L 820 772 L 825 776 L 829 777 L 843 777 L 844 778 L 857 779 L 860 775 L 859 706 L 858 705 L 858 694 L 857 693 L 857 650 L 855 643 L 855 620 L 854 619 L 853 603 L 850 597 L 832 597 L 831 598 L 785 596 Z "></path><path fill="rgb(37,40,42)" stroke="rgb(37,40,42)" stroke-width="1" opacity="1" d="M 747.5 417 Q 761 417.6 766 426.5 L 771 437.5 L 771 447.5 L 766.5 455 L 758.5 459 L 739.5 463 L 738.5 462 L 729 462 L 729 436.5 L 730 435.5 L 730 427.5 L 732 423 L 741.5 418 Q 746.2 419.3 747.5 417 Z "></path><path fill="rgb(37,40,42)" stroke="rgb(37,40,42)" stroke-width="1" opacity="1" d="M 863.5 444 L 870.5 445 L 881 453.5 Q 889 461 889 476.5 L 888 477.5 L 888 486.5 L 887 487.5 L 886 499.5 L 884 501.5 L 884 504.5 L 881 510.5 L 874.5 519 L 869.5 523 L 860.5 523 L 853 517.5 L 847 506.5 L 846 488.5 L 847 487.5 L 847 468.5 L 848 463.5 L 855 450.5 L 860.5 445 L 863.5 444 Z "></path><path fill="rgb(37,40,42)" stroke="rgb(37,40,42)" stroke-width="1" opacity="1" d="M 805 638 L 817 639 L 818 641.5 L 818 660.5 L 820 671.5 L 821 704.5 L 818.5 708 L 814.5 706 L 805.5 705 L 804.5 706 L 794.5 706 L 791 703.5 L 791 691.5 L 793 689.5 L 793 682.5 L 796 672.5 L 796 666.5 L 798 663.5 L 798 657.5 L 800 650.5 L 805 638 Z "></path><path fill="rgb(37,40,42)" stroke="rgb(37,40,42)" stroke-width="1" opacity="1" d="M 629 652 Q 642.5 651.8 648 660.5 L 652 670.5 L 653 677.5 L 650 692.5 L 650 699.5 Q 647.4 706.9 641.5 711 L 632.5 714 L 628.5 714 L 626 713 L 626 702.5 L 627 701.5 L 627 676.5 L 626 675.5 L 626 663.5 L 629 652 Z "></path></svg>